<?xml version="1.0" standalone="no"?>
<!DOCTYPE svg PUBLIC "-//W3C//DTD SVG 20010904//EN"
 "http://www.w3.org/TR/2001/REC-SVG-20010904/DTD/svg10.dtd">
<svg version="1.0" xmlns="http://www.w3.org/2000/svg"
 width="1167.000000pt" height="1167.000000pt" viewBox="0 0 1167.000000 1167.000000"
 preserveAspectRatio="xMidYMid meet">
<metadata>
Created by potrace 1.11, written by Peter Selinger 2001-2013
</metadata>
<g transform="translate(0.000000,1167.000000) scale(0.100000,-0.100000)"
fill="#000000" stroke="none">
<path d="M4685 11548 c-1355 -118 -1371 -120 -1425 -146 -53 -26 -108 -92
-1262 -1512 -664 -816 -1212 -1496 -1218 -1510 -28 -61 -22 -122 80 -775 55
-357 103 -657 106 -665 3 -8 50 -289 104 -625 58 -365 106 -631 118 -662 16
-43 197 -329 554 -880 77 -119 118 -155 252 -227 90 -48 1108 -667 1235 -751
83 -55 83 -55 341 -896 132 -432 240 -798 240 -814 0 -72 68 -32 -1816 -1060
-978 -533 -1787 -978 -1798 -987 -18 -15 -19 -19 -6 -28 10 -6 1874 -9 5627
-7 l5613 2 27 28 28 27 3 1296 2 1295 -29 30 c-19 18 -40 29 -58 29 -103 -1
-2748 -231 -2757 -240 -20 -20 17 -58 262 -260 247 -204 272 -231 272 -293 0
-32 -104 -366 -129 -414 -11 -21 -37 -54 -58 -74 -45 -44 -548 -379 -567 -379
-44 0 -54 27 -194 548 -76 281 -142 515 -145 519 -4 3 -9 4 -11 2 -3 -2 -16
-279 -30 -614 l-26 -610 -28 -54 c-24 -49 -42 -64 -182 -163 -107 -75 -172
-114 -210 -125 -53 -16 -77 -15 -588 26 -293 23 -544 47 -558 53 -13 6 -27 22
-30 35 -8 31 834 1741 882 1792 44 46 83 48 319 16 312 -43 253 -58 834 204
272 123 503 228 513 235 10 6 30 28 45 49 22 31 29 60 43 175 20 153 16 182
-26 182 -14 0 -186 -72 -381 -160 -195 -88 -366 -160 -380 -160 -35 0 -59 15
-71 47 -22 54 -142 481 -142 505 0 64 13 72 456 277 528 244 563 262 592 305
29 42 26 20 67 536 20 239 44 534 55 655 16 194 17 223 4 243 -20 30 -37 28
-129 -21 -64 -34 -85 -51 -107 -87 -25 -42 -28 -57 -38 -225 -12 -194 -24
-247 -68 -287 -33 -31 -489 -230 -517 -226 -11 2 -21 12 -23 24 -2 12 44 165
102 341 107 323 119 378 96 438 -5 14 -305 448 -665 964 -695 995 -672 966
-749 964 -17 -1 -161 -54 -320 -118 -273 -110 -292 -116 -326 -106 -20 6 -47
23 -61 38 -14 16 -268 407 -563 870 -411 644 -545 847 -570 863 -19 11 -51 20
-72 20 -22 0 -211 -30 -421 -67 -211 -36 -386 -64 -389 -60 -4 4 -1 14 6 22
22 26 1413 1101 1449 1119 64 34 115 46 666 162 l555 116 47 -23 48 -24 597
-1093 c442 -809 598 -1102 598 -1125 -1 -61 13 -53 -410 -237 -168 -73 -311
-137 -319 -143 -22 -18 -31 -55 -21 -82 18 -47 332 -467 364 -486 45 -28 75
-24 194 25 135 55 157 60 212 43 26 -8 170 -99 342 -216 163 -110 301 -201
307 -201 6 0 11 4 11 9 0 5 -95 143 -212 307 -116 165 -224 319 -240 344 -48
77 -47 118 10 330 27 102 52 200 54 218 12 89 10 94 -601 1220 -452 832 -593
1101 -602 1143 -9 46 -7 90 15 267 31 255 31 255 6 307 -17 35 -47 60 -187
156 -92 63 -248 174 -347 248 -217 161 -251 180 -481 271 -215 86 -269 100
-355 99 -36 -1 -681 -55 -1435 -121z m-1607 -4886 c12 -12 27 -59 41 -130 20
-103 21 -113 6 -149 -22 -53 -36 -65 -160 -151 -179 -122 -198 -147 -197 -247
2 -156 35 -533 52 -587 10 -32 107 -227 215 -433 108 -207 195 -378 192 -381
-2 -2 -133 136 -291 308 -208 227 -293 327 -312 366 -22 46 -33 115 -80 468
-59 444 -59 459 -13 518 22 29 461 405 494 424 27 15 32 15 53 -6z m3817 -186
c14 -21 15 -115 13 -827 l-3 -804 -23 -52 c-33 -71 -158 -193 -199 -193 -18 0
-38 9 -50 23 -17 18 -691 1196 -747 1304 -22 44 -20 77 7 107 27 31 920 464
959 465 19 1 33 -7 43 -23z m1999 -1888 c12 -19 13 -43 5 -143 -11 -128 -22
-159 -66 -176 -30 -11 -541 45 -557 62 -6 6 -6 13 1 20 21 21 548 257 575 258
18 1 32 -7 42 -21z m-4081 -721 c709 -628 851 -757 811 -735 -5 3 -425 225
-933 494 -606 321 -929 497 -939 513 -28 42 -17 82 74 262 90 177 112 203 155
192 11 -3 385 -330 832 -726z"/>
</g>
</svg>
